# Blender 4.3.2
# www.blender.org
mtllib grass_mesh.mtl
o Plane
v -0.140699 0.232072 0.042977
v -0.005281 -0.042413 0.042977
v -0.140699 0.232072 -0.029875
v -0.005281 -0.042413 -0.029875
v -0.363396 0.382889 0.026548
v -0.363396 0.382889 -0.013447
v -0.539260 0.451830 0.016099
v -0.539260 0.451830 -0.002998
vn 0.8968 0.4424 -0.0000
vn 0.5607 0.8280 -0.0000
vn 0.3650 0.9310 -0.0000
vt 0.000000 0.000000
vt 1.000000 0.000000
vt 1.000000 1.000000
vt 0.000000 1.000000
s 0
f 1/1/1 2/2/1 4/3/1 3/4/1
f 1/1/2 3/4/2 6/4/2 5/1/2
f 5/1/3 6/4/3 8/4/3 7/1/3
o Plane.001
v 0.015033 0.294217 0.103580
v 0.015033 -0.050566 -0.001775
v -0.057408 0.291917 0.111108
v -0.057408 -0.052866 0.005752
v 0.013316 0.517729 0.314429
v -0.026453 0.516467 0.318561
v 0.016911 0.637082 0.486664
v -0.002078 0.636479 0.488637
vn -0.1080 0.2905 -0.9508
vn -0.0969 0.6826 -0.7244
vn -0.0849 0.8198 -0.5663
vt 0.000000 0.000000
vt 1.000000 0.000000
vt 1.000000 1.000000
vt 0.000000 1.000000
s 0
f 9/5/4 10/6/4 12/7/4 11/8/4
f 9/5/5 11/8/5 14/8/5 13/5/5
f 13/5/6 14/8/6 16/8/6 15/5/6
o Plane.002
v 0.113802 0.210262 -0.089060
v -0.012526 -0.024472 -0.062930
v 0.117777 0.216185 -0.016632
v -0.008551 -0.018549 0.009498
v 0.324139 0.329968 -0.093904
v 0.326321 0.333220 -0.054142
v 0.490386 0.379630 -0.096601
v 0.491428 0.381183 -0.077616
vn -0.8801 0.4747 0.0095
vn -0.4949 0.8678 -0.0438
vn -0.2866 0.9560 -0.0625
vt 0.000000 0.000000
vt 1.000000 0.000000
vt 1.000000 1.000000
vt 0.000000 1.000000
s 0
f 17/9/7 18/10/7 20/11/7 19/12/7
f 17/9/8 19/12/8 22/12/8 21/9/8
f 21/9/9 22/12/9 24/12/9 23/9/9
o Plane.003
v -0.033820 0.289884 -0.148403
v -0.039644 -0.044932 -0.014837
v 0.037983 0.284230 -0.159445
v 0.032160 -0.050586 -0.025880
v -0.036119 0.495268 -0.376941
v 0.003300 0.492164 -0.383003
v -0.045107 0.600257 -0.558102
v -0.026285 0.598775 -0.560996
vn 0.1695 0.3626 0.9164
vn 0.1592 0.7351 0.6590
vn 0.1432 0.8594 0.4909
vt 0.000000 0.000000
vt 1.000000 0.000000
vt 1.000000 1.000000
vt 0.000000 1.000000
s 0
f 25/13/10 26/14/10 28/15/10 27/16/10
f 25/13/11 27/16/11 30/16/11 29/13/11
f 29/13/12 30/16/12 32/16/12 31/13/12
o Plane.004
v 0.152421 0.293109 0.051553
v 0.002726 -0.038148 -0.052049
v 0.102525 0.299058 0.104628
v -0.047170 -0.032200 0.001026
v 0.345052 0.478252 0.234592
v 0.317660 0.481518 0.263729
v 0.491844 0.564017 0.377414
v 0.478765 0.565576 0.391327
vn -0.6141 0.4747 -0.6305
vn -0.3696 0.8188 -0.4392
vn -0.2284 0.9202 -0.3178
vt 0.000000 0.000000
vt 1.000000 0.000000
vt 1.000000 1.000000
vt 0.000000 1.000000
s 0
f 33/17/13 34/18/13 36/19/13 35/20/13
f 33/17/14 35/20/14 38/20/14 37/17/14
f 37/17/15 38/20/15 40/20/15 39/17/15
